<?xml version="1.0" encoding="UTF-8"?>
<svg id="Layer_2" data-name="Layer 2" xmlns="http://www.w3.org/2000/svg" xmlns:xlink="http://www.w3.org/1999/xlink" viewBox="0 0 256.77 264.49">
  <defs>
    <style>
      .cls-1 {
        fill: url(#New_Gradient_Swatch_1);
      }

      .cls-1, .cls-2, .cls-3, .cls-4, .cls-5 {
        stroke: #000;
      }

      .cls-2 {
        fill: url(#linear-gradient);
      }

      .cls-6 {
        font-family: Chango-Regular, Chango;
        font-size: 64px;
        letter-spacing: 0em;
      }

      .cls-3 {
        fill: #22b573;
      }

      .cls-3, .cls-4 {
        stroke-miterlimit: 10;
      }

      .cls-4, .cls-5 {
        fill: none;
      }

      .cls-7 {
        font-family: SignPainter-HouseScript, SignPainter;
        font-size: 32px;
      }
    </style>
    <linearGradient id="New_Gradient_Swatch_1" data-name="New Gradient Swatch 1" x1="46.96" y1="195.94" x2="223.8" y2="195.94" gradientUnits="userSpaceOnUse">
      <stop offset="0" stop-color="#cce0f4"/>
      <stop offset=".06" stop-color="#c2dcf2"/>
      <stop offset=".17" stop-color="#a9d2ee"/>
      <stop offset=".31" stop-color="#7fc2e7"/>
      <stop offset=".46" stop-color="#46abdd"/>
      <stop offset=".57" stop-color="#1e9cd7"/>
      <stop offset=".87" stop-color="#3952a4"/>
      <stop offset="1" stop-color="#394fa2"/>
    </linearGradient>
    <linearGradient id="linear-gradient" x1="42.81" y1="64.67" x2="227.95" y2="64.67" gradientUnits="userSpaceOnUse">
      <stop offset="0" stop-color="#cce0f4"/>
      <stop offset=".06" stop-color="#c2dcf2"/>
      <stop offset=".17" stop-color="#a9d2ee"/>
      <stop offset=".31" stop-color="#7fc2e7"/>
      <stop offset=".46" stop-color="#46abdd"/>
      <stop offset=".57" stop-color="#1e9cd7"/>
      <stop offset=".87" stop-color="#3952a4"/>
      <stop offset="1" stop-color="#394fa2"/>
    </linearGradient>
  </defs>
  <g id="Layer_1-2" data-name="Layer 1">
    <text class="cls-6" transform="translate(24.42 153.03)"><tspan x="0" y="0">HWD</tspan></text>
    <path class="cls-1" d="M46.96,170.22c16.31,30.51,49.78,51.43,88.42,51.43s72.12-20.92,88.42-51.43"/>
    <text class="cls-7" transform="translate(14.16 185.02) rotate(56.08)"><tspan x="0" y="0">W</tspan></text>
    <text class="cls-7" transform="translate(27.97 204.37) rotate(47.22)"><tspan x="0" y="0">e</tspan></text>
    <text class="cls-7" transform="translate(37.62 214.51) rotate(40.53)"><tspan x="0" y="0">b</tspan></text>
    <text class="cls-7" transform="translate(49.12 223.96) rotate(34.72)"><tspan x="0" y="0"> </tspan></text>
    <text class="cls-7" transform="translate(58.15 230.23) rotate(27.87)"><tspan x="0" y="0">D</tspan></text>
    <text class="cls-7" transform="translate(75.75 239.02) rotate(20.26)"><tspan x="0" y="0">e</tspan></text>
    <text class="cls-7" transform="translate(88.71 243.59) rotate(14.31)"><tspan x="0" y="0">s</tspan></text>
    <text class="cls-7" transform="translate(101.35 246.59) rotate(9.31)"><tspan x="0" y="0">i</tspan></text>
    <text class="cls-7" transform="translate(111.28 248.2) rotate(3.57)"><tspan x="0" y="0">g</tspan></text>
    <text class="cls-7" transform="translate(128.13 248.98) rotate(-3.57)"><tspan x="0" y="0">n</tspan></text>
    <text class="cls-7" transform="translate(144.19 247.69) rotate(-9.99)"><tspan x="0" y="0">s</tspan></text>
    <path class="cls-2" d="M42.81,94.83c14.18-35.27,50.28-60.33,92.57-60.33s78.39,25.06,92.57,60.33"/>
    <text class="cls-7" transform="translate(159.78 28.51) rotate(15.41)"><tspan x="0" y="0">H</tspan></text>
    <text class="cls-7" transform="translate(175.79 33.28) rotate(22.21)"><tspan x="0" y="0">i</tspan></text>
    <text class="cls-7" transform="translate(182.86 36.19) rotate(26.8)"><tspan x="0" y="0">l</tspan></text>
    <text class="cls-7" transform="translate(190.54 40.13) rotate(31.73)"><tspan x="0" y="0">l</tspan></text>
    <text class="cls-7" transform="translate(197.82 44.64) rotate(37.34)"><tspan x="0" y="0">s</tspan></text>
    <text class="cls-7" transform="translate(206.36 51.18) rotate(44.1)"><tspan x="0" y="0">b</tspan></text>
    <text class="cls-7" transform="translate(215.31 59.4) rotate(54.06)"><tspan x="0" y="0">or</tspan></text>
    <text class="cls-7" transform="translate(227.26 76.71) rotate(64.14)"><tspan x="0" y="0">o</tspan></text>
    <line class="cls-5" x1="223.8" y1="170.22" x2="46.96" y2="170.22"/>
    <line class="cls-5" x1="227.95" y1="94.83" x2="42.81" y2="94.83"/>
    <path class="cls-3" d="M12.8,50.69c.52,1.32,3.78-.39,9.67.98,10.79,2.51,12.01,11.08,21.32,15.1,12.85,5.54,26.59-3.86,27.98-4.84,2.33-1.64,13.06-9.22,11.65-16.85-1.7-9.16-20.1-14.25-33.8-13.57-20.97,1.04-38.08,15.98-36.82,19.18Z"/>
    <path class="cls-3" d="M143.17,2.32c.39,1.28-3.2,2.04-6.98,6.67-6.92,8.47-2.67,15.45-7.52,24.09-6.69,11.93-23.17,13.55-24.86,13.69-2.83.24-15.83,1.33-19.37-5.09-4.24-7.7,7.08-22.73,18.22-30.65C119.74-1.12,142.22-.77,143.17,2.32Z"/>
    <path class="cls-4" d="M74.69,45.91c-9.98-2.69-20.97-1.47-30.11,3.36"/>
    <path class="cls-4" d="M90.79,38.82c.22.2-.33.45-.45.18s.09-.56.3-.77c5.51-5.73,12.87-9.65,20.69-11.04"/>
  </g>
</svg>