<?xml version="1.0" encoding="UTF-8"?>
<svg id="Layer_2" data-name="Layer 2" xmlns="http://www.w3.org/2000/svg" viewBox="0 0 86.78 36.19">
  <defs>
    <style>
      .cls-1 {
      fill: #fff;
      }

      .cls-2 {
      fill: #e918d0;
      }
    </style>
  </defs>
  <g id="Layer_1-2" data-name="Layer 1">
    <g>
      <path
        d="M49.33,10.79h.57l1.82,5.56,1.48-5.56h.67l1.48,5.44,1.8-5.44h.58l-2.1,6.35h-.57l-1.54-5.5-1.52,5.5h-.57l-2.1-6.35Z" />
      <path
        d="M59.28,16.44c-.52-.63-.78-1.45-.78-2.47s.26-1.85.78-2.47c.52-.62,1.2-.92,2.06-.92s1.54.28,2.06.85c.52.57.77,1.32.77,2.27v.28h-5.07c0,.86.2,1.56.61,2.07.41.52.95.77,1.62.77.51,0,.96-.13,1.37-.4.42-.28.71-.64.86-1.09h.6c-.1.59-.42,1.07-.95,1.46-.54.39-1.16.58-1.88.58-.85,0-1.54-.31-2.06-.92ZM63.57,13.39v-.22c-.05-.59-.29-1.08-.72-1.49-.44-.4-.94-.6-1.52-.6s-1.08.2-1.51.61c-.44.42-.68.93-.73,1.54v.16h4.47Z" />
      <path
        d="M67.07,16.96c-.4-.26-.7-.61-.91-1.06v1.24h-.6v-8.84h.6v3.92c.17-.46.46-.83.86-1.12.41-.28.86-.42,1.36-.42.83,0,1.5.3,2,.91.51.61.76,1.42.76,2.43s-.25,1.82-.76,2.43c-.5.61-1.16.91-2,.91-.47,0-.9-.13-1.31-.4ZM70,16.08c.4-.52.6-1.2.6-2.06s-.2-1.54-.6-2.06c-.41-.52-.94-.77-1.61-.77-.62,0-1.14.28-1.57.83-.44.55-.66,1.21-.66,2s.22,1.45.66,2c.43.56.95.83,1.57.83.67,0,1.2-.26,1.61-.78Z" />
    </g>
    <g>
      <path
        d="M50.48,26.5c-.48-.4-.72-.88-.72-1.45h.55c0,.43.18.8.55,1.1.37.3.81.45,1.33.45.6,0,1.08-.13,1.45-.4.36-.28.54-.64.54-1.09,0-.34-.19-.63-.57-.86-.38-.23-.88-.37-1.52-.43-.68-.06-1.21-.25-1.61-.57-.41-.32-.61-.71-.61-1.18,0-.53.2-.93.61-1.22.41-.29.98-.43,1.71-.43s1.27.15,1.68.46c.43.31.64.72.64,1.24h-.57c-.07-.39-.26-.69-.57-.91s-.71-.33-1.19-.33c-.54,0-.96.11-1.28.33-.32.22-.48.51-.48.86,0,.34.19.63.58.86.38.23.88.37,1.52.43.67.06,1.2.26,1.61.6.4.34.6.76.6,1.27,0,.57-.23,1.02-.7,1.36-.46.34-1.07.51-1.85.51-.68,0-1.25-.2-1.71-.6Z" />
      <path
        d="M56.53,26.76c-.23-.26-.34-.58-.34-.95v-4.76h-.91v-.46h.91v-1.8h.6v1.8h.86v.46h-.86v4.76c0,.25.06.46.19.64.12.18.27.27.45.27.19,0,.34-.03.46-.1v.43c-.22.08-.39.12-.51.12-.33,0-.61-.13-.85-.4Z" />
      <path
        d="M59.5,26.52c-.43-.39-.64-.85-.64-1.4v-4.53h.6v4.53c0,.41.15.76.46,1.06.31.29.68.43,1.12.43.52,0,.98-.2,1.39-.6.41-.4.67-.9.78-1.51v-3.92h.6v6.35h-.6v-1.12c-.18.39-.47.7-.86.94-.39.23-.82.34-1.3.34-.6,0-1.11-.19-1.54-.58Z" />
      <path
        d="M66.09,26.11c-.55-.65-.82-1.43-.82-2.36s.27-1.73.82-2.4c.55-.67,1.2-1,1.97-1,.49,0,.93.14,1.34.43.4.3.69.69.86,1.16v-3.86h.6v8.84h-.6v-1.3c-.16.44-.44.79-.85,1.06-.4.27-.85.4-1.36.4-.77,0-1.42-.33-1.97-.98ZM69.62,25.8c.43-.57.64-1.25.64-2.04s-.21-1.47-.64-2.03c-.44-.57-.96-.85-1.57-.85s-1.12.28-1.55.85c-.43.56-.64,1.23-.64,2.03s.21,1.48.64,2.04.94.85,1.55.85,1.13-.28,1.57-.85Z" />
      <path d="M72.77,18.09h.6v.91h-.6v-.91ZM72.77,26.93v-6.35h.6v6.35h-.6Z" />
      <path
        d="M75.69,26.14c-.55-.6-.82-1.39-.82-2.39s.27-1.85.82-2.47c.54-.62,1.26-.92,2.16-.92s1.62.31,2.16.92c.54.63.81,1.45.81,2.47s-.27,1.79-.81,2.39c-.55.6-1.27.89-2.16.89s-1.62-.3-2.16-.89ZM79.58,25.79c.43-.51.64-1.18.64-2.03s-.21-1.57-.64-2.09c-.44-.53-1.01-.79-1.73-.79s-1.3.26-1.73.79c-.44.52-.66,1.21-.66,2.09s.22,1.52.66,2.03c.43.51,1,.76,1.73.76s1.29-.25,1.73-.76Z" />
      <path
        d="M82.52,26.5c-.48-.4-.72-.88-.72-1.45h.55c0,.43.18.8.55,1.1.37.3.81.45,1.33.45.6,0,1.08-.13,1.45-.4.36-.28.54-.64.54-1.09,0-.34-.19-.63-.57-.86-.38-.23-.88-.37-1.52-.43-.68-.06-1.21-.25-1.61-.57-.41-.32-.61-.71-.61-1.18,0-.53.2-.93.61-1.22.41-.29.98-.43,1.71-.43s1.27.15,1.68.46c.43.31.64.72.64,1.24h-.57c-.07-.39-.26-.69-.57-.91s-.71-.33-1.19-.33c-.54,0-.96.11-1.28.33-.32.22-.48.51-.48.86,0,.34.19.63.58.86.38.23.88.37,1.52.43.67.06,1.2.26,1.61.6.4.34.6.76.6,1.27,0,.57-.23,1.02-.7,1.36-.46.34-1.07.51-1.85.51-.68,0-1.25-.2-1.71-.6Z" />
    </g>
    <rect class="cls-2" width="47.93" height="36.19" rx=".3" ry=".3" />
    <g>
      <path class="cls-1" d="M6.99,27.5V11.02h-2.34v-2.34l4.66-2.36h2.33v21.18h-4.65Z" />
      <path class="cls-1"
        d="M23.98,27.5v-7.06h-9.32v-2.36l9.32-11.76h4.65v11.76h2.34v2.36h-2.34v7.06h-4.65ZM23.98,18.08v-8.82l-6.99,8.82h6.99Z" />
      <path class="cls-1" d="M36.3,27.5V11.02h-2.34v-2.34l4.66-2.36h2.33v21.18h-4.65Z" />
    </g>
  </g>
</svg>