<?xml version="1.0" encoding="utf-8"?>
<!-- Generator: Adobe Illustrator 28.1.0, SVG Export Plug-In . SVG Version: 6.00 Build 0)  -->
<svg version="1.1" id="Layer_1" xmlns="http://www.w3.org/2000/svg" xmlns:xlink="http://www.w3.org/1999/xlink" x="0px" y="0px"
	 viewBox="0 0 1000 1000" enable-background="new 0 0 1000 1000" xml:space="preserve">
<rect fill="#1E1E26" width="1000" height="1000"/>
<g>
	<path fill="none" stroke="#DEC398" stroke-width="1.5" stroke-linecap="round" stroke-miterlimit="10" d="M159.7,300
		c5.7-5.7,7.8-14.1,9.6-22c3.8-16.5,7.7-33,11.5-49.6c1-4.4,2-9,0.6-13.3c-2.5-7.2-11.4-10.5-18.9-9.1s-13.8,6.3-19.6,11.3
		c-12.6,10.8-24.9,23.1-30,38.9c-4.3,13.2-2.1,29,7.7,39.3C130.5,305.9,148.4,311.3,159.7,300z"/>
	<path fill="none" stroke="#DEC398" stroke-width="3" stroke-linecap="round" stroke-miterlimit="10" d="M141,329.5
		c-6.3,3.1-13,6.3-20,6.4c-11.5,0.1-21.5-8-28.1-17.4c-10.6-15.3-14.7-34.9-11-53.2c3-14.9,10.9-28.4,20.1-40.5
		c9.2-12.1,19.8-23.1,29.2-35.1c5.8-7.4,11.3-15.3,18.4-21.5s16.3-10.7,25.7-9.8c13.6,1.3,24.1,13.6,28,26.8c4.5,14.8,2.6,30.8,0,46
		c-3.7,21.4-8.8,42.6-15.2,63.3c-1.1,3.6-2.3,8.5-4.6,11.5c-2.6,3.4-8.1,6.5-11.9,8.4C161.4,319.5,151.2,324.5,141,329.5z"/>
	<path fill="none" stroke="#DEC398" stroke-width="1.5" stroke-linecap="round" stroke-miterlimit="10" d="M174.1,137.1
		c-11.7-1-23.2,4.3-32.2,11.8c-9,7.6-15.8,17.3-22.8,26.7c-12.9,17.6-26.6,34.7-37.5,53.5s-19.2,39.8-20.1,61.6
		c-0.9,21.8,6.1,44.5,22,59.5c15.7,14.8,39.3,20.5,60,14.6c21.2-6,37.7-22.8,49.4-41.5s19.3-39.5,29.2-59.1
		c9.9-19.7,22.6-38.8,41.2-50.4c24.6-15.4,57.5-16.5,78.1-37c7.8-7.8,13.2-20.3,7.7-29.9c-3.1-5.5-9.3-8.8-15.5-9.8
		c-6.2-1-12.6-0.1-18.8,1c-22.8,4.4-46.2,12-67.4,21.7c-8.4,3.8-13.5,5.4-22.7,2.1c-8.5-3-15.8-8.4-23.3-13.2
		C193,143.3,184.2,138,174.1,137.1z"/>
	<path fill="none" stroke="#DEC398" stroke-width="1.5" stroke-linecap="round" stroke-miterlimit="10" d="M507.5,73
		c23.9-3.7,49-0.9,70.8,9.6c17.1,8.2,31.6,20.8,47.7,30.9c19.7,12.3,41.7,20.8,59.7,35.5c22,18,36.1,44,46.8,70.4
		c19.4,47.7,31.7,100.9,71.7,136.3c9.6,8.5,20.6,16.3,26,28c6.4,13.8,3.8,29.7,8.5,43.9c2.4,7.1,6.4,9.6,11.2,14.6
		c5.5,5.7,10.5,12,15.5,18.1c19.8,24.4,37.3,51.9,42.6,83.3c3.9,23.1,0.9,46.7-2.2,69.9c-2.7,21-5.5,42.2-12.2,62.3
		c-6.7,20.1-17.7,39.3-34.4,52.4c-8.5,6.7-18.7,12.2-23.2,22c-5.2,11.3-1.4,26.2-9.5,35.7c-5.7,6.7-16.4,9.6-17.6,18.6
		c-0.7,5.4,2.6,10.4,7.6,12.4c8.7,3.6,17.6-1.3,23.1-8.1c4.5-5.6,7-12.4,9.8-18.9c9.4-22.3,22-43.3,37.1-62.3
		c10.6-13.2,22.5-25.6,30.4-40.6c5.4-10.3,9.5-24.2,9-36.8c-0.7-17,0.8-34,3.6-50.7c2.4-13.9,3.8-27.8,3-41.9
		c-2.1-36.8-19.5-72-45.9-97.8c-10-9.7-21.6-18.9-26.1-32.1c-3.1-9.1-2.2-19-3-28.6s-0.5-17.2-7.9-23.3
		c-40.2-33.2-71.1-77.5-88.4-126.7c-10-28.4-13.8-63.2-32.7-86.6C697.2,123.8,665,84.3,622.3,58.8s-98.9-34.3-142-9.4
		c-24,13.9-41.8,36.8-65.6,51c-22.1,13.2-48.1,18.2-73.4,22.9c-33,6.1-66.8,12.3-100,6.8c-22.8-3.8-45.3-13-68.2-10.2
		c-37.3,4.6-62.8,38.7-83.7,69.9c-15.5,23.1-31.2,46.5-40,72.9s-10.3,56.4,2.4,81.2c11.9,23.3,36.1,39.7,62,43.1
		c26,3.4,53.1-6.1,71.9-24.4c38.7-37.6,40-104.9,83.8-136.5c36.9-26.6,94.3-19.6,122.9-55c4.3-5.3,9-9.1,13.1-14.6
		c9.3-12.4,20.2-23.4,31.1-34.4c10.7-10.8,21.4-21.6,33.5-30.7S492.5,75.4,507.5,73z"/>
	<path fill="none" stroke="#DEC398" stroke-width="3" stroke-linecap="round" stroke-miterlimit="10" d="M683.5,0
		c24.2,21.3,41.7,50.2,58.2,78.3c15.1,25.7,30.3,51.4,42.1,78.8c11.8,27.4,20.1,56.6,21,86.3c0.2,5.8-1.2,13.2-6.8,14.5
		c-3.3,0.7-6.8-1.3-8.7-4.1c-2-2.8-2.8-6.2-3.7-9.5c-15.9-61.5-56.6-115-101.5-159.9c-30-29.9-66-54.8-106.7-66.5
		C536.7,6.1,491,8.4,454.1,29.2c-28,15.8-46.8,43.3-77.7,52.3c-24,7-48,14-72.8,17c-24.8,3.1-50.4,2-73.8-6.7
		c-11.9-4.5-23.2-10.9-35.7-13.4c-13.8-2.7-28.1-0.4-41.3,4.4c-18.9,7-35.8,19.4-48.2,35.3c-4.4,5.6-8.1,11.6-11.6,17.8
		c-14.8,27-22.4,58.1-41.9,82.4c-4.5,5.7-10.8,10.1-14.4,16.3c-4.4,7.5-7.1,16.4-8.9,24.9c-3.8,17.4-4,35.3-4,53.1
		c0,19.4,0.4,40.1,11.6,55.9c9.5,13.3,25.1,20.7,40.5,25.8c35,11.5,75.8,13.1,106.5-7.3c31.1-20.7,44.9-58.8,67.6-88.4
		c19.8-25.8,43.1-52.1,75.3-57c32.9-5,64.3-20.2,88.6-42.9c19.3-18.1,34.2-40.7,54.7-57.4c25.6-20.8,59.3-31.3,92.2-28.7
		c32.9,2.7,57.3,22.7,84.4,41.4c9.5,6.5,18.4,13.9,26.6,21.9c23.5,22.9,41.6,51.4,52.5,82.5c5.3,15.1,6.1,31.5,11.4,46.4
		c5.8,16.5,14.1,29.4,27.4,40.9c14,12.1,30,22.9,39,39.1c7.5,13.6,9.1,29.6,14.1,44.2c3.8,11,9.5,21.4,16.8,30.4
		c6.9,8.5,15.8,13.8,23,22c14.5,16.8,24.2,37.4,29.4,58.9c6.7,28.1,5.8,57.7,0.5,86.1c-3.1,16.8-7.9,33.6-16.7,48.2
		c-6.7,11.1-16,20.9-27.3,27.2c-9.7,5.4-23.8,5.4-27.6,18.2c-2,6.9,1.1,14,2.7,21c4.2,18.8-3.3,41.4-19.7,51.5
		c-5.3,3.3-6.8,10.5-5.7,16.6c1.1,6.1,4.1,11.7,5.9,17.6c1.8,6,2,13-1.9,17.8c-4.2,5.2-11.8,6.1-18.6,6.3c-12.6,0.3-25.1,2.8-37-1.4
		c-26.5-9.3-57.2-6.1-81.2,8.6c-21.8,13.3-37.2,34.7-54.3,53.6c-35.5,39.3-80.7,69.8-130.3,88.2"/>
	<path fill="none" stroke="#DEC398" stroke-width="1.5" stroke-linecap="round" stroke-miterlimit="10" d="M655.8,0
		c14.6,14.9,27.4,31.7,37.7,49.8c1.7,3,3.4,6.6,1.8,9.7c-1.4,2.8-5.2,3.8-8.3,3c-3.1-0.8-5.6-2.8-8.1-4.8
		C652.6,36.4,624.7,17.1,595.5,0"/>
	<path fill="none" stroke="#DEC398" stroke-width="1.5" stroke-linecap="round" stroke-miterlimit="10" d="M0,231.4
		c18-19.1,31.9-42,45.2-64.8c15.8-27.1,31.2-54.8,53.1-77.3c21.8-22.5,51.2-39.6,82.6-39.4c23.5,0.1,45.8,9.7,68.6,15.2
		c43,10.2,89.8,5.2,128.7-15.8c26.5-14.3,50.1-36,76.6-49.2"/>
	<path fill="none" stroke="#DEC398" stroke-width="1.5" stroke-linecap="round" stroke-miterlimit="10" d="M0,180.2
		c31.2-36.5,49.7-84,84.7-117.2c25.7-24.4,59.2-39.6,93.9-46.8c22-4.6,45.9-5.8,66.1,4c10.5,5.1,19.6,12.9,30.4,17.1
		c13.4,5.2,28.3,4.6,42.4,2.2c31.5-5.3,61.5-19.1,86.2-39.4"/>
	<path fill="none" stroke="#DEC398" stroke-width="1.5" stroke-linecap="round" stroke-miterlimit="10" d="M0,130.3
		C18,101,38.7,73.2,63.7,49.6c22-20.8,47.6-38.3,75.6-49.6"/>
	<path fill="none" stroke="#DEC398" stroke-width="1.5" stroke-linecap="round" stroke-miterlimit="10" d="M0,56.8
		C14.2,33.9,33.7,14.3,56.6,0"/>
	<path fill="none" stroke="#DEC398" stroke-width="1.5" stroke-linecap="round" stroke-miterlimit="10" d="M726.8,0
		c38.4,39,60.5,92,81.3,143.2c11.1,27.2,22.3,55.6,20.6,85c-1.6,27.1-14.2,54.4-6.9,80.5c8.8,31.8,44,50.3,54.3,81.6
		c4.7,14.2,3.9,29.9,9,43.9c6.2,16.8,20.1,29.2,31.2,43.3c37.9,48.1,44.8,118.4,83.7,163"/>
	<path fill="none" stroke="#DEC398" stroke-width="3" stroke-linecap="round" stroke-miterlimit="10" d="M757.9,0
		c10.9,8.4,18.7,21.4,23.7,34.5c6.8,17.8,9.8,36.8,17,54.4c16.8,40.8,55.6,73.5,58,117.5c2,37.5-23.4,76.6-7.5,110.6
		c7.7,16.5,23.7,27.5,33.8,42.7c13,19.3,15.5,43.5,22.2,65.7c15.2,49.7,52.2,89.6,94.8,120.1"/>
	<path fill="none" stroke="#DEC398" stroke-width="1.5" stroke-linecap="round" stroke-miterlimit="10" d="M1000,568.2
		c-4-3.4-8.1-6.7-12.2-10c-3.1-2.5-7-5.1-10.7-3.5c-2.8,1.2-4,4.6-3.7,7.6c0.4,3,2,5.7,3.7,8.2c6.5,9.8,14.2,18.7,22.9,26.6"/>
	<path fill="none" stroke="#DEC398" stroke-width="1.5" stroke-linecap="round" stroke-miterlimit="10" d="M800.8,0
		c8.7,13.7,12.3,30.9,14.5,47.3c2.4,18.3,2.6,45.8,15,60.8c5.1,6.1,13.4,10.5,19.4,16.1c7,6.5,13.6,13.4,19.5,21
		c11.9,15.2,20.7,33.6,21.3,52.9c1.2,35.8-25.2,70.9-14.5,105.1c5.5,17.5,19.7,30.8,28.2,47c13.6,25.8,11.8,57,22.4,84.1
		c13.1,33.6,43,56.7,73.5,76.9"/>
	<path fill="none" stroke="#DEC398" stroke-width="1.5" stroke-linecap="round" stroke-miterlimit="10" d="M834.2,0
		c5.1,9.5,7.1,21.1,7.5,32c0.7,17.9-1.4,36.7,6,53.1c7.9,17.7,25.2,29,37.9,43.6c17.7,20.3,26.8,48,24.4,74.8
		c-1.9,21.3-10.6,41.8-10.6,63.2c0,15.1,4.4,29.9,8.7,44.4c10.3,34.3,20.5,68.6,30.8,102.8c5.8,19.4,14.1,41.5,33.4,47.7
		c9.2,3,19.7,1.3,27.6-4.2"/>
	<path fill="none" stroke="#DEC398" stroke-width="1.5" stroke-linecap="round" stroke-miterlimit="10" d="M866.6,0
		c0,18.4,3.5,36.9,10.9,53.7c17.5,39.9,55.6,70.4,63.1,113.3c5.9,33.6-8.4,67.1-11.8,101c-4.8,48.5,12.8,96.2,30.1,141.8
		c2.8,7.5,6.4,15.7,13.7,18.9c7.5,3.2,16.5-0.2,22.1-6.1c2.1-2.2,3.8-4.7,5.3-7.4"/>
	<path fill="none" stroke="#DEC398" stroke-width="3" stroke-linecap="round" stroke-miterlimit="10" d="M899.1,0
		c-2.5,16.3,3.2,34,11.4,48.8c10.7,19.2,25.6,36,34.2,56.1c10.4,24.2,10.9,51.5,8.4,77.8c-2.5,26.2-8,52.2-9,78.5
		c-0.9,23,1.6,46.1,7.3,68.3c3.6,13.9,9.1,28.3,20.6,36.8c7.9,5.8,19.2,7.5,28,4"/>
	<path fill="none" stroke="#DEC398" stroke-width="1.5" stroke-linecap="round" stroke-miterlimit="10" d="M1000,283.8
		c-11.3-16-17.5-35.6-17-55.1c0.5-17.9,6.6-35.6,17-50.3"/>
	<path fill="none" stroke="#DEC398" stroke-width="1.5" stroke-linecap="round" stroke-miterlimit="10" d="M926.8,0
		c1.4,19.7,10.5,39.2,23.3,54.7c13.9,16.6,31.5,29.4,49.9,41.1"/>
	<path fill="none" stroke="#DEC398" stroke-width="1.5" stroke-linecap="round" stroke-miterlimit="10" d="M781.8,1000
		c1.1-10.2,4.1-20.5,7.6-30.2c6.1-16.5,13.9-32.7,16.8-50c2.3-13.6,1.5-27.5,3.6-41.1c2.1-13.8,7.9-27.9,19.7-36.2
		c12.8-8.9,23.9-15.3,33.1-28.6c10.9-15.8,17.7-33.9,25.8-51.3c8.1-17.4,14.3-37.4,30.5-47.5c15.5-9.7,21.1-29.6,22.2-47.8
		c1.1-18.2-1-37,4.5-54.5c1.1-3.4,2.9-7.2,6.4-8.1c3.1-0.8,6.4,1.3,8.1,4c1.7,2.7,2.3,6,3,9.1c5,22,21.8,40.5,7.8,63.2
		c-6.2,10.1-15.4,18-21.5,28.1c-10.8,17.8-11.3,40.8-24.3,57c-9.2,11.5-23.6,18.2-31.6,30.5c-6.8,10.5-7.9,23.5-10,35.9
		c-2.1,12.3-5.9,25.5-15.9,33c-8.3,6.2-20.1,7.8-26.1,16.2c-4.8,6.5-4.6,15.5-2.8,23.4c1.8,7.9,5,15.5,5.5,23.6
		c1.4,18.9-11.2,35.5-22.1,51.1c-4.4,6.3-8.6,13.1-11.7,20.3"/>
	<path fill="none" stroke="#DEC398" stroke-width="1.5" stroke-linecap="round" stroke-miterlimit="10" d="M529.2,1000
		c45.1-20.6,89.1-44.8,118.4-84.1c11.9-16,22.7-35.4,41.7-41.4c9-2.8,18.6-2.2,27.9-1.2c16.1,1.7,33.4,5.2,44.2,17.2
		c10.4,11.7,12.2,28.9,9.3,44.3c-2.9,15.4-9.8,29.6-15.1,44.4c-2.4,6.7-4.5,13.8-5.6,20.8"/>
	<path fill="none" stroke="#DEC398" stroke-width="3" stroke-linecap="round" stroke-miterlimit="10" d="M583.2,1000
		c18.3-8.7,35.5-19.1,49.4-33.6c11-11.5,19.4-25.1,29.9-37.1c10.5-12,23.8-22.5,39.5-24.8c15.7-2.3,33.7,6.2,37.8,21.5
		c3,11.3-1.8,23-6.1,33.9c-5.1,13.1-9.6,26.5-13.3,40.1"/>
	<path fill="none" stroke="#DEC398" stroke-width="1.5" stroke-linecap="round" stroke-miterlimit="10" d="M633,1000
		c11.3-9.1,22.1-18.9,32.2-29.4c4-4.1,8-8.5,13.2-10.9c5.2-2.4,12-2.4,16.1,1.7c4.9,4.9,4,12.9,2.6,19.7c-1.2,6.3-2.5,12.6-3.7,18.9
		"/>
	<path fill="none" stroke="#DEC398" stroke-width="3" stroke-linecap="round" stroke-miterlimit="10" d="M856.2,1000
		c7.3-14.2,11.6-29.9,12.2-45.8c0.5-13.1-1.3-26.6,2.6-39.1c4-12.6,13.3-22.7,21.4-33.1c22.8-29.3,37.4-64,50-98.8
		c7-19.5,13.5-39.3,24.3-56.9c8.3-13.7,19.5-26.1,33.3-33.9"/>
	<path fill="none" stroke="#DEC398" stroke-width="1.5" stroke-linecap="round" stroke-miterlimit="10" d="M890.9,1000
		c0.6-16.8,2.2-33.5,6.2-49.8c5.8-23.8,17-46.8,35.2-63.1c12.4-11.1,28.2-19.4,36.1-34.1c11.6-21.6,1.9-48.3,5.2-72.6
		c2.4-17.5,12.4-33.7,26.4-44.4"/>
	<path fill="none" stroke="#DEC398" stroke-width="1.5" stroke-linecap="round" stroke-miterlimit="10" d="M931.7,1000
		c1-21.3,5.9-42.4,14.4-62c12.4-28.4,31.9-52.5,53.9-74.5"/>
	<path fill="none" stroke="#DEC398" stroke-width="1.5" stroke-linecap="round" stroke-miterlimit="10" d="M964.5,1000
		c6.7-28,18.8-54.7,35.5-78.1"/>
	<path fill="none" stroke="#DEC398" stroke-width="1.5" stroke-linecap="round" stroke-miterlimit="10" d="M0,350.4
		c15.9,36.5,47.2,66.6,85.2,78.8c54.8,17.5,119.6-3.2,153.9-49.3c17.4-23.3,27.3-51.9,47.2-73.1c37.2-39.7,99.8-44.4,141.7-79.2
		c24.4-20.3,40.2-49.8,65.8-68.6c14.9-11,32.9-17.7,51.2-19.7c21.3-2.3,35.2,1.9,52.8,13.2c32,20.6,64.2,44.5,81.9,79.2
		c12.5,24.4,16.7,52,25.1,78.1c7.4,23,19,44,37.4,59.9c17.9,15.5,34.2,23.5,43.4,47.1c7.6,19.3,11.2,40.5,22.6,57.9
		c10.5,15.9,26.7,27.2,37.7,42.8c12,17,17,38.3,17.5,59.1c0.6,20.9-2.9,41.6-6.5,62.1c-3.7,21.7-22.5,35.5-42.5,44.6
		c-6.9,3.2-14.3,5.3-21.1,8.8c-6.7,3.5-13,8.8-15.6,16c-4,11,1.7,22.9,3,34.6c1.5,14.3-3.7,28.3-8.9,41.8
		c-5.3,13.9-11.5,28.7-24.1,36.5c-14.5,9-33,6.1-49.9,3.5c-16.8-2.5-36-3.7-48.9,7.5c-34.3,29.9-72.8,54.3-103.9,87.5
		c-19.4,20.7-38.2,43.6-64.4,54.3c-48.9,20-105.3-8.8-157.2,1.8c-19.7,4-37.5,13.5-54.4,24.6"/>
	<path fill="none" stroke="#DEC398" stroke-width="1.5" stroke-linecap="round" stroke-miterlimit="10" d="M0,387
		c24.9,26.8,53.8,49.7,87.6,63.1c43.2,17.1,95.3,16.5,133.6-10c28.7-19.9,46.6-51.4,66-80.4c19.4-29,43.5-58,77-67.7
		c10.7-3.1,23.7-3.5,31.6,4.3c6.7,6.6,7.7,17.2,5.1,26.2c-2.7,9-8.5,16.6-14.2,24c-16,20.6-32.6,41.1-43,64.9
		c-10.4,23.9-14.2,51.9-3.8,75.8c13.1,30.3,47.1,51.2,50.3,84.1c1.3,13.6-3.2,27.2-10,39.1c-15.1,26.2-42,45.3-71.8,50.9
		c-37.8,7-71.7-8.8-100.3-31.5c-31.1-24.7-69.7-40.1-109.3-43.2c-33.7-2.6-68,3.8-98.7,17.8"/>
	<path fill="none" stroke="#DEC398" stroke-width="1.5" stroke-linecap="round" stroke-miterlimit="10" d="M521.2,592
		c0.4,3.1,1.1,6.6,3.8,8.2c2.4,1.4,5.6,0.6,7.7-1.1c2.1-1.8,3.4-4.3,4.4-6.9c6.6-16,11.8-62.5-8.2-72.5
		c-15.4-7.7-10.8,19.3-10.7,27.2C518.4,561.6,518.4,577.5,521.2,592z"/>
	<path fill="none" stroke="#DEC398" stroke-width="1.5" stroke-linecap="round" stroke-miterlimit="10" d="M542,492.8
		c-9.1-15.5-20.7-32.3-16.7-49.8c3.6-15.7,18.6-26,26.3-40.1c9.2-16.8,7.3-37.2,6.3-56.4c-0.9-16.2,0-34.6,11.9-45.5
		c6.2-5.7,14.5-8.3,22.3-11.5c15.4-6.3,29.7-15.1,42.2-25.9c9.5-8.2,18.6-19.5,16.4-31.8c-1.6-8.9-9.1-16-17.6-19
		c-8.6-3-18-2.4-26.9-0.4c-32.6,7.2-60.3,33.3-69.4,65.5c-10.7,38,2.7,82.5-18.9,115.5c-9.2,14.1-24.7,26-25.2,42.8
		c-0.3,9,4,18.1,1.4,26.6c-2,6.5-7.4,11.2-11.1,16.9c-11.9,18.6-2.7,42.7,2.7,64.1c5.5,21.7,6.6,44.6,3.2,66.7
		c-1,6.4-2.3,12.9-1.7,19.4c0.7,6.5,3.8,13.1,9.6,16.1c6.1,3.1,13.4,1.6,19.8-0.8c30.6-11.3,53.2-41.6,55.4-74.1
		C574.2,543.5,556.1,516.7,542,492.8z"/>
	<path fill="none" stroke="#DEC398" stroke-width="1.5" stroke-linecap="round" stroke-miterlimit="10" d="M574.2,209.1
		c-11.6,7.7-25.4,12.1-36.3,20.7c-17,13.4-25,35.2-28.8,56.5c-3.8,21.3-4.2,43.2-9.8,64c-6,22.3-17.7,42.6-29.3,62.6
		c-7.5,12.9-15.3,26.1-27.4,34.7c-13.2,9.3-31.3,11.9-45.9,5.1c-14.6-6.8-24.6-23.3-22.2-39.3c2.7-18,18.7-30.7,27.1-46.8
		c13.8-26.6,5.8-59.5,15.3-87.9c7.8-23.5,26.7-41.3,44.9-58.1c21.4-19.8,43.6-40.1,70.8-50.7c16-6.2,37-8.8,52.2,1.1
		C601.5,182.1,587.2,200.5,574.2,209.1z"/>
	<path fill="none" stroke="#DEC398" stroke-width="1.5" stroke-linecap="round" stroke-miterlimit="10" d="M397.8,414.8
		c-0.9,5.6,1.1,11.6,5.2,15.5c4.1,4,10.1,5.8,15.6,4.8c7.6-1.4,13.4-7.4,18-13.6c35.8-47.7,30.5-116.4,63.5-166
		c2.8-4.1,5.8-8.2,7.3-13s1-10.5-2.7-13.9c-5.2-4.9-13.6-2.9-20,0.1c-23.5,11.1-41.9,32.5-49.3,57.4c-9,30.4-2.6,65.4-19.1,92.5
		c-5.1,8.5-12.3,15.6-17,24.3C397.2,406.7,398.5,410.5,397.8,414.8z"/>
	<path fill="none" stroke="#DEC398" stroke-width="1.5" stroke-linecap="round" stroke-miterlimit="10" d="M0,425.5
		C17.6,442,39.2,454.4,61.9,463c31.6,11.9,65.4,16.8,99,19.8c14.1,1.3,29.2,2.5,40.4,11.3c14.6,11.3,18.1,31.5,20.2,49.9
		c0.9,8.3,1.8,17.2-1.8,24.8c-4.5,9.7-15.4,15.1-26,16.2c-10.6,1.1-21.3-1.3-31.8-3.3C108.7,571.2,53.8,569.2,0,575.9"/>
	<path fill="none" stroke="#DEC398" stroke-width="3" stroke-linecap="round" stroke-miterlimit="10" d="M0,459.1
		c34.2,21.8,72.9,36.4,112.9,42.4c9.2,1.4,18.7,2.4,27.2,6.3c8.5,3.9,16,11.4,17,20.7c1.2,11.2-7.6,21.6-18.1,26
		c-10.4,4.3-22.2,4.1-33.5,3.7C70.4,557.1,35.2,556,0,554.8"/>
	<path fill="none" stroke="#DEC398" stroke-width="1.5" stroke-linecap="round" stroke-miterlimit="10" d="M0,490.6
		c26.4,8.7,52.7,17.4,79.1,26.1c3.7,1.2,7.4,2.5,10.4,5c2.9,2.5,4.9,6.5,3.8,10.2c-1.7,5.8-9,7.4-15.1,7.8c-26,2-52.2,2.6-78.2,1.8"
		/>
	<path fill="none" stroke="#DEC398" stroke-width="1.5" stroke-linecap="round" stroke-miterlimit="10" d="M234.7,562.2
		c-2.8,14.4-7.5,29.1-4.5,43.5c3.4,16,16.5,29,31.8,34.8c15.3,5.8,32.5,5.3,48.4,1.3c15.8-4,31.2-11.6,41.8-24
		c10.6-12.4,15.8-30.1,10.8-45.6c-3.7-11.4-12.1-20.4-19.2-30c-31.4-42.3-37.2-102.1-14.6-149.7c3.9-8.1,8.6-16.2,11.7-24.5
		c3.5-9.3-6.7-17.9-15.2-12.8c-0.1,0-0.1,0.1-0.2,0.1c-5.6,3.5-10.1,8.5-14.5,13.4c-16.2,18.3-32.5,36.6-48.7,54.9
		c-9.4,10.5-18.8,21.1-27.4,32.3c-7.7,9.9-9.2,14.4-5.6,26.2C237.3,508.3,239.8,535.2,234.7,562.2z"/>
	<path fill="none" stroke="#DEC398" stroke-width="3" stroke-linecap="round" stroke-miterlimit="10" d="M254.7,568.1
		c-2.1,12.8-5.2,26.4-0.4,38.5c4.4,11.3,15.5,19.3,27.4,21.5c11.9,2.1,24.5-1.2,34.6-7.9c12.9-8.5,22.4-23.3,21.4-38.7
		c-1-17.1-13.7-30.8-22.8-45.3c-15-23.8-21.2-52.9-17.2-80.7c1.4-9.6,2.8-21.7-5.5-26.6c-6.2-3.7-14.2-0.7-20.1,3.3
		c-9.1,6.1-18.4,15.8-22.1,26.3c-3.2,9.2,1.1,15.2,3.6,23.9C261.2,509.1,259.2,541.1,254.7,568.1z"/>
	<path fill="none" stroke="#DEC398" stroke-width="1.5" stroke-linecap="round" stroke-miterlimit="10" d="M276,599.3
		c1.8,5,5.2,9.7,10.1,11.6c7.1,2.9,15.4-0.8,20.6-6.4c9.8-10.4,11.4-27.5,3.8-39.5c-4.9-7.8-13.1-13.3-17.2-21.5
		c-1.7-3.4-2.7-7.1-4.7-10.4c-3.4-5.4-13.2-8.7-14.9,0c-1.1,5.5,2.8,13.3,2.8,19.3C276.3,568,270.4,584.2,276,599.3z"/>
	<path fill="none" stroke="#DEC398" stroke-width="3" stroke-linecap="round" stroke-miterlimit="10" d="M0,630.6
		c29.4-17.9,65.7-24.8,99.5-17.9c36.8,7.5,68.6,29.5,102.2,46.2c30.8,15.3,64.3,26.4,98.7,26.7c34.4,0.3,69.8-11.3,93.7-35.9
		c24-24.7,34.4-63.3,21.3-95.1c-5.6-13.7-15-25.4-23.5-37.5c-4.6-6.6-9-13.9-8.5-21.9c0.8-11.8,12.6-20.4,24.4-21.7
		c21.7-2.4,41.8,14.6,50.3,34.7c8.5,20.1,8.1,42.7,7.5,64.6c-0.4,16.2-2.6,33.8-2.2,50c0.4,16.2,4.1,33.5,15.9,44.6
		c12.7,11.9,32.4,14,49,8.7C545,671,558.9,659.5,571,647c20.5-21.3,31.8-52,31.9-81.6c0-29.6-11.5-59-31.5-80.8
		c-14.9-16.2-16.1-38.8-3.7-56.9c6.6-9.6,16.4-16.7,21.9-26.8c5.2-9.7,6-21.1,6.4-32.1c0.4-11.1,0.7-22.5,5.2-32.6
		c4.5-10.2,17.5-18.1,28.7-17.6c17,0.8,31.9-0.9,46.6,8.2c33.9,21,45.4,68.3,80.7,86.9c24.3,12.8,19.3,49.1,32.5,73.1
		c10,18.1,26.4,31.9,37.3,49.4c16.3,26.1,19.2,60.1,7.5,88.6c-4.8,11.6-10.3,27.3-20.2,35c-9.9,7.7-21.7,12.4-32.7,18.3
		c-11,6-21.7,13.8-26.8,25.3c-10.6,23.5,5.8,53.7-7.4,75.8c-6.5,10.9-19.2,17.1-31.8,18.9c-4.9,0.7-9.8,0.8-14.8,0.6
		c-22.3-1-44.6,3.8-64.6,13.6c-29.5,14.5-56,34.1-79.9,58.1c-25.1,25.2-46.8,55.6-79,70.6c-24.7,11.6-53,12.7-80.2,11.2
		c-27.2-1.5-54.5-5.4-81.7-3.1c-41.3,3.5-81,22-110.7,50.9"/>
	<path fill="none" stroke="#DEC398" stroke-width="1.5" stroke-linecap="round" stroke-miterlimit="10" d="M0,653.1
		c19.1-8.3,41.1-10.6,62-8.2c29.4,3.4,57.2,15.1,84.1,27.7c26.8,12.6,53.4,26.3,81.9,34.2c51.9,14.4,109.2,8.2,156.9-16.9
		c10.2-5.4,20.3-11.7,31.7-13.9c11.4-2.2,24.8,1,30.8,10.9c5.4,8.8,3.5,20.1,1.9,30.3c-5.9,38.1-5,77.2,2.8,115
		c2.9,13.9,6.7,27.8,6.8,41.9c0.1,14.2-4.1,29.2-14.7,38.5c-14.8,13.1-36.9,11.8-56.6,10.4c-44.3-3.2-89.7-3.6-132,10
		c-35.9,11.5-69.5,34.6-88.2,66.8"/>
	<path fill="none" stroke="#DEC398" stroke-width="3" stroke-linecap="round" stroke-miterlimit="10" d="M0,704.8
		c19.6-8.4,42.2-10.4,63.5-7.8c29.5,3.6,57.4,15,84.7,26.8c27.3,11.7,54.8,24,84,29.3c49.4,9,101.4-2.7,144.8-28
		c7.1-4.1,14.1-8.7,22-10.5s17.3-0.2,22.4,6.1c6.5,8.1,3.9,19.8,1.8,29.9c-6.1,29.3-5.1,60,2.9,88.8c4.1,14.6,9.7,31,1.8,44
		c-7.7,12.8-24.8,15.6-39.7,16.7c-34,2.5-68.2,2.7-101.9,7.4c-33.7,4.8-67.5,14.4-95.4,34c-20.6,14.5-37.8,34.9-46.5,58.3"/>
	<path fill="none" stroke="#DEC398" stroke-width="1.5" stroke-linecap="round" stroke-miterlimit="10" d="M0,758.3
		c13.1-5.9,26.4-11.2,40.2-15c24.4-6.8,50.8-8.9,75.1-1.6c24.8,7.5,45.8,24.1,70,33.5c44.7,17.4,95.1,8.5,141-5.4
		c17-5.1,36.3-10.7,51.5-1.5c16.6,10,19.8,32.3,21.2,51.6c1.4,18.1,1.8,38.8-11.4,51.4c-9.5,9.1-23.5,11.1-36.6,12.4
		c-33.1,3.4-66.4,5-99.1,11.3c-32.7,6.2-65.1,17.4-91.3,37.8c-23,17.9-39.9,41.6-54.2,67.2"/>
	<path fill="none" stroke="#DEC398" stroke-width="3" stroke-linecap="round" stroke-miterlimit="10" d="M0,786.9
		c15.7-5.7,31.6-10.6,48-13.3c24.8-4,51.3-2.6,73.7,8.8c22.4,11.4,40.1,33.8,41.4,59c1.6,32.5-22.4,59.7-41.8,85.8
		c-16.8,22.6-31.2,47.1-42.8,72.8"/>
	<path fill="none" stroke="#DEC398" stroke-width="1.5" stroke-linecap="round" stroke-miterlimit="10" d="M0,812.8
		c11.3-5.7,22.9-10.9,35.1-14.3c17.8-4.9,37.2-5.9,54.3,1c17.1,6.8,31.3,22.4,33.2,40.8c2.2,20.9-11,39.9-22.6,57.4
		c-21.4,32.2-39.5,66.6-54,102.4"/>
	<path fill="none" stroke="#DEC398" stroke-width="1.5" stroke-linecap="round" stroke-miterlimit="10" d="M0,839.9
		c10.8-3.2,21.7-6,32.7-8.4c14.2-3,31-4.5,41.3,5.7c7.7,7.5,9.4,19.7,6.9,30.2c-2.5,10.5-8.4,19.8-14.2,29
		C45.4,930.3,25.2,964.8,6.2,1000"/>
	<path fill="none" stroke="#DEC398" stroke-width="1.5" stroke-linecap="round" stroke-miterlimit="10" d="M264.5,808.6
		c14.4-4.5,28.7-9.8,43.6-11.7s31-0.2,43.5,8.2s20.3,24.7,15.9,39.1c-4.7,15.3-21.2,24.2-37.1,26.1c-15.9,1.9-31.9-1.4-47.9-2.3
		c-22.1-1.1-71.8,18.9-84.9-9.2C184,829.8,247.3,814,264.5,808.6z"/>
	<path fill="none" stroke="#DEC398" stroke-width="1.5" stroke-linecap="round" stroke-miterlimit="10" d="M604.7,415.4
		c-5.1,15.8-10.2,32.5-8.2,49.3c1.7,14.4,11.6,27.8,18.8,40c4.6,7.9,9,16,11.8,24.7c2.1,6.6,4.3,14.7,4.2,21.6
		c-0.2,14.9-3.1,29.9-7.7,44.1c-13,39.9-41.5,74.9-79.1,93.9c-19,9.6-40.6,15.7-55.6,30.8c-14.5,14.7-20.6,36.1-20.7,56.7
		c-0.2,20.6,5,40.9,10.2,60.9c2.2,8.6,4.6,17.3,9.6,24.6c5,7.3,13.2,13.1,22.1,12.7c12.3-0.5,20.9-11.8,28.7-21.3
		c25.2-30.3,61.2-51.3,99.9-58.4c15.7-2.9,31.8-3.5,47.1-7.9c15.3-4.4,30.4-13.3,37.1-27.8c11.1-23.8-3.3-54.7,10.4-77.1
		c12.5-20.5,41.1-22.6,61.2-35.6c15.9-10.2,26.5-28,28.7-46.8s-4-38.2-16.1-52.7c-10.6-12.7-25.4-21.8-33.9-35.9
		c-8.5-14.1-9.6-31.4-14.7-47c-8.6-26.3-28.4-47.2-47.6-67.1c-9.6-10-19.5-20.2-31.6-27c-12.1-6.8-27.1-9.9-40.1-4.8
		C619.7,372.9,611.1,395.4,604.7,415.4z"/>
	<path fill="none" stroke="#DEC398" stroke-width="1.5" stroke-linecap="round" stroke-miterlimit="10" d="M619.3,423.3
		c-3.4,16.2,0.5,33.2,6.4,48.7c5.8,15.5,13.5,30.4,18.3,46.3c10.4,35,5.1,73.8-11.8,106.2c-16.9,32.3-45,58.3-77.3,75.1
		c-22.8,11.9-49.2,20.5-64.2,41.4c-19.2,26.6-13.3,63.9-0.3,94c3.9,9.1,9.8,19,19.6,20.4c7.2,1,14.2-3.2,18.9-8.6
		c4.7-5.5,7.8-12.1,11.6-18.3c11.1-18.3,29.1-32.2,49.5-38.6c24.6-7.6,51.4-4.2,76.7-9.1c13.8-2.6,27.8-8.2,36.3-19.3
		c19.6-25.4,2.4-66.2,21.1-92.2c10.5-14.7,29.3-20.2,46.1-26.8c16.8-6.6,34.7-17.6,37.6-35.4c1.8-10.8-2.6-21.8-8.9-30.8
		c-6.3-9-14.4-16.5-21.5-24.8c-23-27.3-33.7-62.6-49.6-94.6c-11.7-23.5-28-46.9-51.1-60.3c-11.3-6.5-21.7-11-33.8-4.7
		C630.6,398.1,622.1,409.8,619.3,423.3z"/>
	<path fill="none" stroke="#DEC398" stroke-width="1.5" stroke-linecap="round" stroke-miterlimit="10" d="M640.1,440.4
		c1.5,12.9,8.3,24.5,13.8,36.2c16.4,35.7,20.9,76.9,11.6,115s-32.5,72.9-64.8,95.3c-22.2,15.4-48.3,25-69.5,41.9
		s-37.3,44.9-28.6,70.5c2,6,6,12,12.2,13.4c9.7,2.2,17.4-7.6,24.2-14.9c13.6-14.4,33.3-21.5,52.8-25.1c19.5-3.6,39.5-4.1,59-7.6
		c15.9-2.9,32.4-8.5,42-21.5c14.7-19.8,7.5-47.8,12.7-71.9c4.5-21.2,19.6-39.8,39.3-48.7c8-3.6,16.6-5.7,24.4-9.7s15-10.5,16.6-19.1
		c1.6-8.3-2.3-16.8-7.8-23.3c-5.5-6.5-12.4-11.5-18.5-17.3c-21.3-20.5-30.6-50.1-42.3-77.3c-8.9-20.6-20.7-41.4-39.2-54.8
		c-6.4-4.6-17.4-13.1-26-10.2C641.6,414.8,639,431.1,640.1,440.4z"/>
	<path fill="none" stroke="#DEC398" stroke-width="1.5" stroke-linecap="round" stroke-miterlimit="10" d="M580.1,717.5
		c22.5-14.8,45-29.7,67.4-44.5c7.6-5,16.5-10.2,25.1-7.5c6.2,1.9,10.6,7.6,12.6,13.7c2,6.1,2.1,12.7,2.1,19.2
		c0.1,16.7-0.9,35.8-13.8,46.4c-11,9-26.7,8.4-40.9,8.9c-30.7,0.9-61.2,8.9-88.5,23c-6.4,3.3-18.1,13.1-23.1,4
		c-4.3-7.9,4.8-17.6,9.3-22.9C544.2,741.3,562.4,729.2,580.1,717.5z"/>
	<path fill="none" stroke="#DEC398" stroke-width="3" stroke-linecap="round" stroke-miterlimit="10" d="M684.4,536.9
		C683,564.3,676,591,671.2,618c-1.4,8.1-1.3,18.9,6.4,21.9c5.5,2.2,11.5-1.4,16.5-4.7c18.9-13,37.9-26,56.8-39
		c2.4-1.7,5-3.4,6.2-6.1c1.8-3.8,0.7-8.4-1.7-11.9s-5.8-6.1-8.9-8.9c-32.8-29.7-32.6-83.1-62.7-115.5c-3-3.2-6.4-6.2-10.5-7.4
		c-8.6-2.4-14.5,4.6-10.9,12.5c3.3,7.1,9.9,12.9,13.2,20.6C683.2,497.5,685.3,517.5,684.4,536.9z"/>
	<path fill="none" stroke="#DEC398" stroke-width="1.5" stroke-linecap="round" stroke-miterlimit="10" d="M645.8,689.6
		c5.9-3.9,13.3-8.1,19.6-1.9c2.4,2.4,3.8,5.7,4,9.1c0.8,11.6,2.9,26.6-5.8,35.6c-7,7.3-18.3,7.8-28.4,7.8c-8.9,0-17.8,0-26.7,0
		c-2.2,0-4.4-0.4-6.3-1.4c-11.5-6-2.1-21.8,5.6-26.4C620.5,704.7,633.4,697.9,645.8,689.6z"/>
</g>
</svg>
